<svg xmlns="http://www.w3.org/2000/svg" viewBox="0 0 640 500" role="img" aria-label="Renewal radar illustration">
<defs><radialGradient id="bg"><stop stop-color="#ECE8FF"/><stop offset="1" stop-color="#F8F7FF" stop-opacity="0"/></radialGradient><linearGradient id="sweep" x1="320" y1="250" x2="530" y2="100"><stop stop-color="#6956E8" stop-opacity=".42"/><stop offset="1" stop-color="#9D8CFF" stop-opacity="0"/></linearGradient></defs>
<rect width="640" height="500" rx="40" fill="url(#bg)"/><g transform="translate(320 250)" fill="none" stroke="#6956E8" stroke-opacity=".15"><circle r="58"/><circle r="108"/><circle r="158"/><circle r="208"/></g><path d="M320 250 530 94a262 262 0 0 1 50 105Z" fill="url(#sweep)"/><circle cx="320" cy="250" r="34" fill="#6956E8"/><path d="M303 265v-17c0-5 4-9 9-9h5v26h-14Zm17-34a30 30 0 0 1 31 31l-10-2a20 20 0 0 0-21-19v-10Zm0 14a16 16 0 0 1 16 16l-9-1a7 7 0 0 0-7-6v-9Z" fill="white"/><g font-family="Arial, sans-serif" font-size="15" font-weight="700"><g transform="translate(114 160)"><circle r="30" fill="#fff"/><circle r="18" fill="#1ED760"/><path d="M-9-3c7-4 18-3 25 1M-8 4c6-3 15-2 21 1M-5 10c5-2 11-1 16 1" fill="none" stroke="#111" stroke-width="3" stroke-linecap="round"/></g><g transform="translate(486 135)"><circle r="30" fill="#fff"/><circle r="18" fill="#111"/><text text-anchor="middle" y="6" fill="#E50914" font-size="22">N</text></g><g transform="translate(514 326)"><circle r="30" fill="#fff"/><circle r="18" fill="#F3262A"/><text text-anchor="middle" y="6" fill="#fff">A</text></g><g transform="translate(168 356)"><circle r="30" fill="#fff"/><circle r="18" fill="#4285F4"/><text text-anchor="middle" y="6" fill="#fff">G</text></g></g><g fill="#F45B69"><circle cx="392" cy="114" r="6"/><circle cx="440" cy="309" r="5"/></g><g fill="#6956E8"><circle cx="219" cy="220" r="5"/><circle cx="381" cy="378" r="6"/></g></svg>
